<svg width="22" height="22" viewBox="0 0 22 22" fill="none" xmlns="http://www.w3.org/2000/svg">
<path fill-rule="evenodd" clip-rule="evenodd" d="M11 21.6654C8.14238 21.764 5.372 20.6721 3.35015 18.6503C1.32829 16.6284 0.236369 13.858 0.335008 11.0004C0.236346 8.14275 1.32826 5.37235 3.35012 3.35048C5.37197 1.3286 8.14236 0.23667 11 0.335311C13.8576 0.236671 16.628 1.32859 18.6499 3.35045C20.6717 5.3723 21.7636 8.14268 21.665 11.0003C21.7637 13.858 20.6718 16.6284 18.6499 18.6502C16.628 20.6721 13.8577 21.764 11 21.6654ZM11 1.66539C8.49872 1.57897 6.07378 2.53469 4.30405 4.30443C2.53431 6.07416 1.57859 8.4991 1.66501 11.0004C1.57861 13.5017 2.53434 15.9266 4.30408 17.6963C6.07381 19.466 8.49873 20.4217 11 20.3353C13.5013 20.4217 15.9262 19.466 17.696 17.6963C19.4657 15.9265 20.4214 13.5016 20.335 11.0003C20.4214 8.49903 19.4657 6.07412 17.6959 4.3044C15.9262 2.53468 13.5013 1.57897 11 1.66539ZM13.53 7.52999L14.47 8.47099L11.941 11L14.47 13.53L13.53 14.471L11 11.941L8.47001 14.471L7.53001 13.53L10.059 11L7.53001 8.47099L8.47001 7.52999L11 10.059L13.53 7.52999Z" fill="red"/>
</svg>
