<svg width="120" height="70" viewBox="0 0 120 70" fill="none" xmlns="http://www.w3.org/2000/svg">
<path d="M99 53.1889V34.9278H96.1429V51.4495L69 66.6669L50.4286 56.2318V24.7829L67.5714 34.3482V62.4642H70.4286V34.3482L96.1429 19.9998V34.9278H99V16.6667L69 0L39 16.6667V53.1889L69 70L99 53.1889ZM52.0001 22.3188L77.2861 7.82598L94.5713 17.5364L69 31.8842L52.0001 22.3188ZM74.143 6.08726L49 20.7244L43.4287 17.5364L69 3.1887L74.143 6.08726ZM41.8571 19.9998L47.5714 23.1885V54.6382L41.8571 51.4495V19.9998Z" fill="yellow"/>
<path d="M23.8857 17.2143H26.7714V14.8095H29.6571V12.4048H26.7714V10H23.8857V12.4048H21V14.8095H23.8857V17.2143Z" fill="yellow"/>
<path d="M111.667 57H115.333V53.6667H120V50.3333H115.333V47H111.667V50.3333H108V53.6667H111.667V57Z" fill="yellow"/>
<path d="M8.11607 19H4.86964V23.8696H0V27.1161H4.86964V31.9857H8.11607V27.1161H12.9857V23.8696H8.11607V19Z" fill="yellow"/>
</svg>
